<svg width="30" height="30" viewBox="0 0 30 30" fill="none" xmlns="http://www.w3.org/2000/svg">
<path d="M14.6514 15.8729C13.634 15.8729 12.7691 15.5168 12.0569 14.8045C11.3447 14.0923 10.9886 13.2275 10.9886 12.21C10.9886 11.1926 11.3447 10.3277 12.0569 9.61549C12.7691 8.90327 13.634 8.54715 14.6514 8.54715C15.6689 8.54715 16.5337 8.90327 17.246 9.61549C17.9582 10.3277 18.3143 11.1926 18.3143 12.21C18.3143 13.2275 17.9582 14.0923 17.246 14.8045C16.5337 15.5168 15.6689 15.8729 14.6514 15.8729ZM7.3257 28.0824V18.6506C6.55243 17.7959 5.95212 16.8191 5.52479 15.7203C5.09746 14.6214 4.88379 13.4513 4.88379 12.21C4.88379 9.48322 5.83003 7.17358 7.72251 5.2811C9.61499 3.38862 11.9246 2.44238 14.6514 2.44238C17.3782 2.44238 19.6879 3.38862 21.5803 5.2811C23.4728 7.17358 24.4191 9.48322 24.4191 12.21C24.4191 13.4513 24.2054 14.6214 23.7781 15.7203C23.3507 16.8191 22.7504 17.7959 21.9771 18.6506V28.0824L14.6514 25.6405L7.3257 28.0824ZM14.6514 19.5357C16.6863 19.5357 18.416 18.8235 19.8405 17.3991C21.2649 15.9746 21.9771 14.2449 21.9771 12.21C21.9771 10.1751 21.2649 8.44541 19.8405 7.02096C18.416 5.59651 16.6863 4.88429 14.6514 4.88429C12.6165 4.88429 10.8868 5.59651 9.46237 7.02096C8.03792 8.44541 7.3257 10.1751 7.3257 12.21C7.3257 14.2449 8.03792 15.9746 9.46237 17.3991C10.8868 18.8235 12.6165 19.5357 14.6514 19.5357ZM9.76761 24.4501L14.6514 23.1986L19.5352 24.4501V20.6651C18.823 21.0721 18.0546 21.3928 17.2301 21.6272C16.4055 21.8617 15.546 21.9785 14.6514 21.9777C13.7569 21.9768 12.8969 21.8596 12.0715 21.626C11.2462 21.3924 10.4782 21.0725 9.76761 20.6663V24.4501Z" fill="white"/>
</svg>
