<svg width="288" height="303" viewBox="0 0 288 303" fill="none" xmlns="http://www.w3.org/2000/svg">
<g opacity="0.5" clip-path="url(#clip0_36_52)">
<g opacity="0.2">
<path d="M288 284.212C285.951 282.478 283.88 280.769 281.781 279.098C258.953 261.035 233.502 247.16 209.327 231.274C192.449 219.369 180.16 206.863 171.21 194.966C153.155 170.974 146.673 140.239 149.616 109.836C155.744 46.4654 187.045 14.5901 187.045 14.5901C157.211 90.2453 190.173 143.603 190.173 143.603C210.688 176.175 257.698 202.493 257.698 202.493C267.917 208.343 278.051 214.374 288 220.73V284.212Z" fill="#BB9960"/>
<path d="M248.345 157.28C240.026 155.302 212.433 145.589 194.655 127.352C177.025 109.258 170.955 89.0183 168.856 80.343C167.721 73.6466 166.388 60.6654 170.615 45.3174C174.863 29.8983 182.649 19.6241 187.032 14.5899C187.819 23.6688 191.705 56.4068 217.816 82.1793C234.226 98.3821 257.266 104.572 266.69 107.065C259.826 121.891 254.897 136.534 248.345 157.28Z" fill="#BB9960"/>
<path d="M288 98.5406C270.328 122.152 260.52 152.547 255.067 182.444C254.542 182.412 254.074 182.301 253.656 182.119C250.103 180.56 250.202 173.95 251.578 169.518C261.194 138.656 271.704 106.488 287.993 79.2509V98.5406H288Z" fill="#BB9960"/>
</g>
</g>
<defs>
<clipPath id="clip0_36_52">
<rect width="288" height="459.738" fill="white" transform="matrix(-1 0 0 -1 288 459.738)"/>
</clipPath>
</defs>
</svg>
