<svg width="288" height="2627" viewBox="0 0 288 2627" fill="none" xmlns="http://www.w3.org/2000/svg">
<g opacity="0.5" clip-path="url(#clip0_279_4071)">
<g opacity="0.2">
<path d="M0 1707.95C2.04944 1706.22 4.12016 1704.51 6.21925 1702.84C29.0468 1684.78 54.4982 1670.9 78.6731 1655.02C95.5509 1643.11 107.84 1630.61 116.79 1618.71C134.845 1594.72 141.327 1563.98 138.384 1533.58C132.256 1470.21 100.955 1438.33 100.955 1438.33C130.789 1513.99 97.8272 1567.35 97.8272 1567.35C77.3115 1599.92 30.302 1626.24 30.302 1626.24C20.0831 1632.09 9.94937 1638.12 0 1644.47V1707.95Z" fill="#BB9960"/>
<path d="M39.6553 1581.02C47.9736 1579.04 75.5666 1569.33 93.345 1551.1C110.975 1533 117.045 1512.76 119.144 1504.09C120.279 1497.39 121.612 1484.41 117.385 1469.06C113.137 1453.64 105.351 1443.37 100.968 1438.33C100.181 1447.41 96.2951 1480.15 70.1842 1505.92C53.7745 1522.13 30.7342 1528.31 21.3096 1530.81C28.1741 1545.63 33.1027 1560.28 39.6553 1581.02Z" fill="#BB9960"/>
<path d="M0 1522.28C17.672 1545.9 27.4796 1576.29 32.9329 1606.19C33.4577 1606.15 33.9257 1606.04 34.3441 1605.86C37.897 1604.3 37.7977 1597.69 36.4219 1593.26C26.8059 1562.4 16.2963 1530.23 0.0070915 1502.99V1522.28H0Z" fill="#BB9960"/>
<path d="M101.154 2107.48C98.2956 2095.82 96.7142 2083.67 95.9555 2071.68C94.6152 2050.6 95.9555 2026.99 109.926 2010.36C118.989 1999.56 131.441 1992.32 142.922 1984.78C154.779 1976.98 166.941 1969.71 179.231 1962.69C179.231 1962.69 226.233 1936.37 246.756 1903.8C246.756 1903.8 279.725 1850.44 249.884 1774.78C249.884 1774.78 281.185 1806.66 287.312 1870.03C290.255 1900.43 283.774 1931.17 265.719 1955.16C256.762 1967.06 244.473 1979.56 227.602 1991.47C203.427 2007.35 177.976 2021.23 155.148 2039.29C143.695 2048.36 132.888 2058.46 123.832 2070.16C114.861 2081.76 109.202 2095.27 101.154 2107.47" fill="#BB9960"/>
<path d="M188.584 1917.47C196.902 1915.5 224.495 1905.78 242.274 1887.55C259.903 1869.45 265.974 1849.21 268.073 1840.54C269.207 1833.84 270.54 1820.86 266.314 1805.51C262.066 1790.09 254.28 1779.82 249.897 1774.78C249.11 1783.86 245.224 1816.6 219.113 1842.37C202.703 1858.58 179.663 1864.77 170.238 1867.26C177.103 1882.08 182.031 1896.73 188.584 1917.47Z" fill="#BB9960"/>
<path d="M0 2024.69C19.4733 2064.12 34.8122 2107.02 34.3725 2151.94C34.2661 2162.99 32.4082 2174 29.0255 2184.47C24.0686 2199.8 15.8921 2213.9 5.60938 2225.95C3.80104 2228.06 1.92889 2230.11 0 2232.1V2240.17C7.97085 2235.08 15.7644 2229.65 23.2034 2223.74C39.684 2210.62 54.6045 2194.89 64.4546 2175.64C93.5156 2118.84 71.8865 2059.04 46.1089 2005.94C26.4655 1965.47 -12.6796 1912.35 7.66591 1864.66C28.288 1816.32 91.9768 1808.22 129.576 1838.5C159.928 1862.95 174.678 1903.24 181.862 1942.65C182.386 1942.61 182.854 1942.5 183.273 1942.32C186.826 1940.76 186.726 1934.15 185.351 1929.72C169.87 1880.03 152.084 1826.95 111.535 1796.52C90.3032 1780.59 63.6391 1772.32 37.663 1775.08C24.4728 1776.47 11.545 1780.8 0 1787.62V2024.69Z" fill="#BB9960"/>
</g>
</g>
<g opacity="0.5" clip-path="url(#clip1_279_4071)">
<g opacity="0.2">
<path d="M0 1118.51C2.04944 1120.24 4.12016 1121.95 6.21925 1123.62C29.0468 1141.68 54.4982 1155.56 78.6731 1171.44C95.5509 1183.35 107.84 1195.86 116.79 1207.75C134.845 1231.74 141.327 1262.48 138.384 1292.88C132.256 1356.25 100.955 1388.13 100.955 1388.13C130.789 1312.47 97.8272 1259.12 97.8272 1259.12C77.3115 1226.54 30.302 1200.23 30.302 1200.23C20.0831 1194.38 9.94937 1188.34 0 1181.99V1118.51Z" fill="#BB9960"/>
<path d="M39.6553 1245.44C47.9736 1247.42 75.5666 1257.13 93.345 1275.37C110.975 1293.46 117.045 1313.7 119.144 1322.38C120.279 1329.07 121.612 1342.05 117.385 1357.4C113.137 1372.82 105.351 1383.09 100.968 1388.13C100.181 1379.05 96.2951 1346.31 70.1842 1320.54C53.7745 1304.34 30.7342 1298.15 21.3096 1295.65C28.1741 1280.83 33.1027 1266.18 39.6553 1245.44Z" fill="#BB9960"/>
<path d="M0 1304.18C17.672 1280.57 27.4796 1250.17 32.9329 1220.27C33.4577 1220.31 33.9257 1220.42 34.3441 1220.6C37.897 1222.16 37.7977 1228.77 36.4219 1233.2C26.8059 1264.06 16.2963 1296.23 0.0070915 1323.47V1304.18H0Z" fill="#BB9960"/>
<path d="M101.154 718.986C98.2956 730.637 96.7142 742.795 95.9555 754.779C94.6152 775.858 95.9555 799.469 109.926 816.1C118.989 826.896 131.441 834.139 142.922 841.682C154.779 849.479 166.941 856.753 179.231 863.774C179.231 863.774 226.233 890.093 246.756 922.664C246.756 922.664 279.725 976.022 249.884 1051.68C249.884 1051.68 281.185 1019.8 287.312 956.431C290.255 926.028 283.774 895.293 265.719 871.301C256.762 859.405 244.473 846.898 227.602 834.994C203.427 819.107 177.976 805.232 155.148 787.169C143.695 778.098 132.888 768.006 123.832 756.299C114.861 744.703 109.202 731.191 101.154 718.994" fill="#BB9960"/>
<path d="M188.584 908.987C196.902 910.965 224.495 920.678 242.274 938.915C259.903 957.009 265.974 977.249 268.073 985.924C269.207 992.62 270.54 1005.6 266.314 1020.95C262.066 1036.37 254.28 1046.64 249.897 1051.68C249.11 1042.6 245.224 1009.86 219.113 984.088C202.703 967.885 179.663 961.695 170.238 959.202C177.103 944.376 182.031 929.733 188.584 908.987Z" fill="#BB9960"/>
<path d="M0 801.773C19.4733 762.338 34.8122 719.445 34.3725 674.525C34.2661 663.467 32.4082 652.465 29.0255 641.993C24.0686 626.661 15.8921 612.564 5.60938 600.516C3.80104 598.403 1.92889 596.353 0 594.366V586.292C7.97085 591.382 15.7644 596.812 23.2034 602.725C39.684 615.841 54.6045 631.568 64.4546 650.819C93.5156 707.619 71.8865 767.42 46.1089 820.524C26.4655 860.988 -12.6796 914.116 7.66591 961.798C28.288 1010.15 91.9768 1018.24 129.576 987.958C159.928 963.508 174.678 923.219 181.862 883.816C182.386 883.847 182.854 883.958 183.273 884.14C186.826 885.7 186.726 892.309 185.351 896.742C169.87 946.434 152.084 999.507 111.535 1029.94C90.3032 1045.88 63.6391 1054.14 37.663 1051.38C24.4728 1049.99 11.545 1045.66 0 1038.85V801.773Z" fill="#BB9960"/>
</g>
</g>
<g opacity="0.5" clip-path="url(#clip2_279_4071)">
<g opacity="0.2">
<path d="M0 764.974C2.04944 763.24 4.12016 761.531 6.21925 759.861C29.0468 741.798 54.4982 727.922 78.6731 712.036C95.5509 700.131 107.84 687.625 116.79 675.728C134.845 651.736 141.327 621.001 138.384 590.598C132.256 527.228 100.955 495.352 100.955 495.352C130.789 571.007 97.8272 624.365 97.8272 624.365C77.3115 656.937 30.302 683.255 30.302 683.255C20.0831 689.105 9.94937 695.137 0 701.493V764.974Z" fill="#BB9960"/>
<path d="M39.6553 638.043C47.9736 636.064 75.5666 626.352 93.345 608.115C110.975 590.02 117.045 569.781 119.144 561.105C120.279 554.409 121.612 541.428 117.385 526.08C113.137 510.661 105.351 500.386 100.968 495.352C100.181 504.431 96.2951 537.169 70.1842 562.942C53.7745 579.144 30.7342 585.334 21.3096 587.828C28.1741 602.653 33.1027 617.297 39.6553 638.043Z" fill="#BB9960"/>
<path d="M0 579.303C17.672 602.914 27.4796 633.31 32.9329 663.206C33.4577 663.174 33.9257 663.063 34.3441 662.881C37.897 661.322 37.7977 654.713 36.4219 650.28C26.8059 619.418 16.2963 587.25 0.0070915 560.013V579.303H0Z" fill="#BB9960"/>
<path d="M101.154 1164.49C98.2956 1152.84 96.7142 1140.69 95.9555 1128.7C94.6152 1107.62 95.9555 1084.01 109.926 1067.38C118.989 1056.58 131.441 1049.34 142.922 1041.8C154.779 1034 166.941 1026.73 179.231 1019.71C179.231 1019.71 226.233 993.388 246.756 960.816C246.756 960.816 279.725 907.458 249.884 831.803C249.884 831.803 281.185 863.679 287.312 927.049C290.255 957.452 283.774 988.187 265.719 1012.18C256.762 1024.08 244.473 1036.58 227.602 1048.49C203.427 1064.37 177.976 1078.25 155.148 1096.31C143.695 1105.38 132.888 1115.47 123.832 1127.18C114.861 1138.78 109.202 1152.29 101.154 1164.49" fill="#BB9960"/>
<path d="M188.584 974.494C196.902 972.515 224.495 962.803 242.274 944.566C259.903 926.471 265.974 906.232 268.073 897.556C269.207 890.86 270.54 877.879 266.314 862.531C262.066 847.112 254.28 836.838 249.897 831.803C249.11 840.882 245.224 873.62 219.113 899.393C202.703 915.596 179.663 921.785 170.238 924.279C177.103 939.104 182.031 953.748 188.584 974.494Z" fill="#BB9960"/>
<path d="M0 1081.71C19.4733 1121.14 34.8122 1164.04 34.3725 1208.96C34.2661 1220.01 32.4082 1231.02 29.0255 1241.49C24.0686 1256.82 15.8921 1270.92 5.60938 1282.96C3.80104 1285.08 1.92889 1287.13 0 1289.11V1297.19C7.97085 1292.1 15.7644 1286.67 23.2034 1280.76C39.684 1267.64 54.6045 1251.91 64.4546 1232.66C93.5156 1175.86 71.8865 1116.06 46.1089 1062.96C26.4655 1022.49 -12.6796 969.365 7.66591 921.683C28.288 873.335 91.9768 865.238 129.576 895.522C159.928 919.973 174.678 960.262 181.862 999.665C182.386 999.633 182.854 999.522 183.273 999.34C186.826 997.781 186.726 991.172 185.351 986.739C169.87 937.046 152.084 883.974 111.535 853.539C90.3032 837.605 63.6391 829.342 37.663 832.104C24.4728 833.489 11.545 837.819 0 844.634V1081.71Z" fill="#BB9960"/>
</g>
</g>
<g opacity="0.5" clip-path="url(#clip3_279_4071)">
<g opacity="0.2">
<path d="M0 175.526C2.04944 177.26 4.12016 178.969 6.21925 180.639C29.0468 198.702 54.4982 212.578 78.6731 228.464C95.5509 240.369 107.84 252.875 116.79 264.772C134.845 288.764 141.327 319.499 138.384 349.902C132.256 413.272 100.955 445.148 100.955 445.148C130.789 369.493 97.8272 316.135 97.8272 316.135C77.3115 283.563 30.302 257.245 30.302 257.245C20.0831 251.395 9.94937 245.363 0 239.007V175.526Z" fill="#BB9960"/>
<path d="M39.6553 302.457C47.9736 304.436 75.5666 314.148 93.345 332.385C110.975 350.48 117.045 370.719 119.144 379.395C120.279 386.091 121.612 399.072 117.385 414.42C113.137 429.839 105.351 440.114 100.968 445.148C100.181 436.069 96.2951 403.331 70.1842 377.558C53.7745 361.356 30.7342 355.166 21.3096 352.672C28.1741 337.847 33.1027 323.203 39.6553 302.457Z" fill="#BB9960"/>
<path d="M0 361.197C17.672 337.586 27.4796 307.19 32.9329 277.294C33.4577 277.326 33.9257 277.437 34.3441 277.619C37.897 279.178 37.7977 285.787 36.4219 290.22C26.8059 321.082 16.2963 353.25 0.0070915 380.487V361.197H0Z" fill="#BB9960"/>
<path d="M101.154 -223.995C98.2956 -212.343 96.7142 -200.185 95.9555 -188.201C94.6152 -167.123 95.9555 -143.511 109.926 -126.881C118.989 -116.084 131.441 -108.842 142.922 -101.299C154.779 -93.5019 166.941 -86.2277 179.231 -79.2068C179.231 -79.2068 226.233 -52.8881 246.756 -20.3163C246.756 -20.3163 279.725 33.0413 249.884 108.696C249.884 108.696 281.185 76.8212 287.312 13.4507C290.255 -16.9523 283.774 -47.6877 265.719 -71.6792C256.762 -83.576 244.473 -96.0823 227.602 -107.987C203.427 -123.873 177.976 -137.749 155.148 -155.812C143.695 -164.883 132.888 -174.975 123.832 -186.682C114.861 -198.278 109.202 -211.789 101.154 -223.987" fill="#BB9960"/>
<path d="M188.584 -33.9941C196.902 -32.0153 224.495 -22.3031 242.274 -4.06609C259.903 14.0285 265.974 34.2681 268.073 42.9434C269.207 49.6398 270.54 62.621 266.314 77.9689C262.066 93.3881 254.28 103.662 249.897 108.696C249.11 99.6175 245.224 66.8795 219.113 41.107C202.703 24.9042 179.663 18.7144 170.238 16.221C177.103 1.39553 182.031 -13.2479 188.584 -33.9941Z" fill="#BB9960"/>
<path d="M0 -141.208C19.4733 -180.642 34.8122 -223.536 34.3725 -268.455C34.2661 -279.513 32.4082 -290.516 29.0255 -300.988C24.0686 -316.32 15.8921 -330.417 5.60938 -342.464C3.80104 -344.578 1.92889 -346.628 0 -348.615V-356.688C7.97085 -351.599 15.7644 -346.169 23.2034 -340.256C39.684 -327.14 54.6045 -311.412 64.4546 -292.162C93.5156 -235.361 71.8865 -175.561 46.1089 -122.456C26.4655 -81.9929 -12.6796 -28.8649 7.66591 18.8174C28.288 67.1645 91.9768 75.262 129.576 44.9777C159.928 20.5271 174.678 -19.7622 181.862 -59.1649C182.386 -59.1333 182.854 -59.0224 183.273 -58.8404C186.826 -57.2811 186.726 -50.6717 185.351 -46.2391C169.87 3.45364 152.084 56.5262 111.535 86.9609C90.3032 102.895 63.6391 111.158 37.663 108.396C24.4728 107.011 11.545 102.681 0 95.8657V-141.208Z" fill="#BB9960"/>
</g>
</g>
<g opacity="0.5" clip-path="url(#clip4_279_4071)">
<g opacity="0.2">
<path d="M0 2648.45C2.04944 2646.72 4.12016 2645.01 6.21925 2643.34C29.0468 2625.28 54.4982 2611.4 78.6731 2595.52C95.5509 2583.61 107.84 2571.11 116.79 2559.21C134.845 2535.22 141.327 2504.48 138.384 2474.08C132.256 2410.71 100.955 2378.83 100.955 2378.83C130.789 2454.49 97.8272 2507.85 97.8272 2507.85C77.3115 2540.42 30.302 2566.74 30.302 2566.74C20.0831 2572.59 9.94937 2578.62 0 2584.97V2648.45Z" fill="#BB9960"/>
<path d="M39.6553 2521.52C47.9736 2519.54 75.5666 2509.83 93.345 2491.6C110.975 2473.5 117.045 2453.26 119.144 2444.59C120.279 2437.89 121.612 2424.91 117.385 2409.56C113.137 2394.14 105.351 2383.87 100.968 2378.83C100.181 2387.91 96.2951 2420.65 70.1842 2446.42C53.7745 2462.62 30.7342 2468.81 21.3096 2471.31C28.1741 2486.13 33.1027 2500.78 39.6553 2521.52Z" fill="#BB9960"/>
<path d="M0 2462.78C17.672 2486.4 27.4796 2516.79 32.9329 2546.69C33.4577 2546.65 33.9257 2546.54 34.3441 2546.36C37.897 2544.8 37.7977 2538.19 36.4219 2533.76C26.8059 2502.9 16.2963 2470.73 0.0070915 2443.49V2462.78H0Z" fill="#BB9960"/>
</g>
</g>
<g opacity="0.5" clip-path="url(#clip5_279_4071)">
<g opacity="0.2">
<path d="M0 2059.01C2.04944 2060.74 4.12016 2062.45 6.21925 2064.12C29.0468 2082.18 54.4982 2096.06 78.6731 2111.94C95.5509 2123.85 107.84 2136.36 116.79 2148.25C134.845 2172.24 141.327 2202.98 138.384 2233.38C132.256 2296.75 100.955 2328.63 100.955 2328.63C130.789 2252.97 97.8272 2199.62 97.8272 2199.62C77.3115 2167.04 30.302 2140.73 30.302 2140.73C20.0831 2134.88 9.94937 2128.84 0 2122.49V2059.01Z" fill="#BB9960"/>
<path d="M39.6553 2185.94C47.9736 2187.92 75.5666 2197.63 93.345 2215.87C110.975 2233.96 117.045 2254.2 119.144 2262.88C120.279 2269.57 121.612 2282.55 117.385 2297.9C113.137 2313.32 105.351 2323.59 100.968 2328.63C100.181 2319.55 96.2951 2286.81 70.1842 2261.04C53.7745 2244.84 30.7342 2238.65 21.3096 2236.15C28.1741 2221.33 33.1027 2206.68 39.6553 2185.94Z" fill="#BB9960"/>
<path d="M0 2244.68C17.672 2221.07 27.4796 2190.67 32.9329 2160.77C33.4577 2160.81 33.9257 2160.92 34.3441 2161.1C37.897 2162.66 37.7977 2169.27 36.4219 2173.7C26.8059 2204.56 16.2963 2236.73 0.0070915 2263.97V2244.68H0Z" fill="#BB9960"/>
<path d="M101.154 1659.49C98.2956 1671.14 96.7142 1683.3 95.9555 1695.28C94.6152 1716.36 95.9555 1739.97 109.926 1756.6C118.989 1767.4 131.441 1774.64 142.922 1782.18C154.779 1789.98 166.941 1797.25 179.231 1804.27C179.231 1804.27 226.233 1830.59 246.756 1863.16C246.756 1863.16 279.725 1916.52 249.884 1992.18C249.884 1992.18 281.185 1960.3 287.312 1896.93C290.255 1866.53 283.774 1835.79 265.719 1811.8C256.762 1799.9 244.473 1787.4 227.602 1775.49C203.427 1759.61 177.976 1745.73 155.148 1727.67C143.695 1718.6 132.888 1708.51 123.832 1696.8C114.861 1685.2 109.202 1671.69 101.154 1659.49" fill="#BB9960"/>
<path d="M188.584 1849.49C196.902 1851.47 224.495 1861.18 242.274 1879.41C259.903 1897.51 265.974 1917.75 268.073 1926.42C269.207 1933.12 270.54 1946.1 266.314 1961.45C262.066 1976.87 254.28 1987.14 249.897 1992.18C249.11 1983.1 245.224 1950.36 219.113 1924.59C202.703 1908.38 179.663 1902.2 170.238 1899.7C177.103 1884.88 182.031 1870.23 188.584 1849.49Z" fill="#BB9960"/>
<path d="M0 1742.27C19.4733 1702.84 34.8122 1659.95 34.3725 1615.03C34.2661 1603.97 32.4082 1592.97 29.0255 1582.49C24.0686 1567.16 15.8921 1553.06 5.60938 1541.02C3.80104 1538.9 1.92889 1536.85 0 1534.87V1526.79C7.97085 1531.88 15.7644 1537.31 23.2034 1543.22C39.684 1556.34 54.6045 1572.07 64.4546 1591.32C93.5156 1648.12 71.8865 1707.92 46.1089 1761.02C26.4655 1801.49 -12.6796 1854.62 7.66591 1902.3C28.288 1950.65 91.9768 1958.74 129.576 1928.46C159.928 1904.01 174.678 1863.72 181.862 1824.32C182.386 1824.35 182.854 1824.46 183.273 1824.64C186.826 1826.2 186.726 1832.81 185.351 1837.24C169.87 1886.93 152.084 1940.01 111.535 1970.44C90.3032 1986.38 63.6391 1994.64 37.663 1991.88C24.4728 1990.49 11.545 1986.16 0 1979.35V1742.27Z" fill="#BB9960"/>
</g>
</g>
<defs>
<clipPath id="clip0_279_4071">
<rect width="288" height="459.738" fill="white" transform="matrix(1 0 0 -1 0 1883.48)"/>
</clipPath>
<clipPath id="clip1_279_4071">
<rect width="288" height="459.738" fill="white" transform="translate(0 942.981)"/>
</clipPath>
<clipPath id="clip2_279_4071">
<rect width="288" height="459.738" fill="white" transform="matrix(1 0 0 -1 0 940.5)"/>
</clipPath>
<clipPath id="clip3_279_4071">
<rect width="288" height="459.738" fill="white"/>
</clipPath>
<clipPath id="clip4_279_4071">
<rect width="288" height="459.738" fill="white" transform="matrix(1 0 0 -1 0 2823.98)"/>
</clipPath>
<clipPath id="clip5_279_4071">
<rect width="288" height="459.738" fill="white" transform="translate(0 1883.48)"/>
</clipPath>
</defs>
</svg>
