<svg width="60" height="60" viewBox="0 0 60 60" fill="none" xmlns="http://www.w3.org/2000/svg">
<path d="M30.0001 60C46.5687 60 60 46.5686 60 30C60 13.4314 46.5685 0 30.0001 0C13.4315 0 0 13.4314 0 30C0 46.5686 13.4315 60 30.0001 60Z" fill="#BB9960" fill-opacity="0.3"/>
<path d="M22.2001 39C23.491 39.9012 28.4701 40.6608 28.4452 38.9647L35.4001 34.5C42.2592 29.7423 46.677 21.5887 46.677 12.6224C46.677 11.5149 46.5865 10.4305 46.4535 9.35915C41.9396 5.76294 36.2279 3.6 30.0026 3.6C15.4208 3.6 3.6001 15.3938 3.6001 29.9424C3.6001 31.0496 3.77696 32.5216 3.90991 33.593C8.42379 37.1892 13.5541 38.6872 20.2747 38.9647C20.9128 38.9911 21.6588 39.0328 22.2001 39Z" fill="#3D9281"/>
<path d="M3.83618 33.1478C4.42616 37.8997 6.2921 42.2522 9.06645 45.8729C9.15996 45.9948 9.24725 46.1212 9.34275 46.2417C9.70282 46.6951 10.0871 47.1276 10.4758 47.5561C10.6372 47.7338 10.794 47.9145 10.9601 48.0877C11.3224 48.4659 11.7026 48.8265 12.0867 49.1827C12.3043 49.3847 12.5216 49.5863 12.746 49.7806C13.1115 50.0974 13.4891 50.4001 13.8718 50.6967C14.1409 50.905 14.4122 51.1088 14.6895 51.3069C15.0575 51.5699 15.433 51.8235 15.8151 52.0676C16.1318 52.2702 16.4537 52.4631 16.7793 52.6522C17.1481 52.8665 17.5204 53.0755 17.9005 53.2724C18.263 53.46 18.6333 53.6327 19.0056 53.8037C19.3732 53.9727 19.7404 54.1414 20.1167 54.2934C20.5254 54.4587 20.9434 54.603 21.3618 54.7481C21.7224 54.8733 22.0799 55.0034 22.4475 55.1132C22.9088 55.2508 23.3806 55.361 23.8521 55.4735C24.1958 55.5556 24.5349 55.6492 24.8835 55.7177C25.4238 55.8239 25.9757 55.8953 26.5275 55.968C26.8217 56.0068 27.1102 56.0628 27.4075 56.0919C28.2555 56.1748 29.1141 56.2211 29.9841 56.2218C29.9916 56.2218 29.9988 56.2228 30.0065 56.2228C44.5832 56.2228 56.4001 44.4297 56.4001 29.882L56.3998 29.8783C56.3998 29.0518 56.3509 28.2378 56.2761 27.4313C56.2644 27.3048 56.2564 27.1772 56.2427 27.0513C56.1614 26.2947 56.045 25.5494 55.9006 24.8135C55.8684 24.65 55.8348 24.4868 55.7999 24.3245C55.6455 23.6105 55.4672 22.9058 55.2562 22.2147C55.2069 22.0529 55.1503 21.8939 55.0979 21.7337C54.8959 21.1155 54.6745 20.5061 54.4286 19.9088C54.3541 19.7274 54.2785 19.547 54.2 19.3678C53.9571 18.8138 53.6928 18.2718 53.4135 17.7385C53.2988 17.5195 53.1873 17.2988 53.0666 17.0835C52.7681 16.5502 52.4492 16.0304 52.1153 15.5207C51.9495 15.2674 51.7787 15.0172 51.6044 14.7701C51.286 14.3184 50.9568 13.875 50.6115 13.445C50.389 13.168 50.1561 12.9 49.9227 12.6322C49.6818 12.356 49.4347 12.086 49.1829 11.8199C48.8206 11.4372 48.447 11.0659 48.0625 10.7053C47.8142 10.4724 47.5633 10.2424 47.306 10.0192C47.0252 9.77531 46.7437 9.53193 46.4524 9.3C46.5853 10.3713 46.6756 11.4553 46.6756 12.5628C46.6756 21.5286 42.2569 29.7426 35.4001 34.5H39.3001C39.2721 37.3457 38.0695 39.58 35.8719 41.204C34.2446 42.4257 32.2138 43.1474 30.0023 43.1474C27.7907 43.1474 25.76 42.4254 24.1327 41.204C23.2504 40.5478 22.5016 39.7365 21.9091 38.8215C21.368 38.8546 20.8311 38.9036 20.2816 38.9036C14.0581 38.9036 8.34832 36.7408 3.83594 33.1448L3.83618 33.1478Z" fill="#338877"/>
<path d="M21.8625 39.007C27.7068 38.9184 33.3738 35.9447 35.4768 34.4688L39.6276 33.0299C40.753 33.5096 43.1032 34.4688 43.5016 34.4688C43.9997 34.4688 43.4463 37.236 43.5016 38.3982C43.5459 39.328 40.9374 43.3237 39.6276 45.2054L26.5113 44.5412C22.5266 42.7334 16.0183 39.0955 21.8625 39.007Z" fill="#338877"/>
<path d="M40.2284 19.7716V27.4429H37.6713V24.1507L32.5891 29.2009C32.9939 29.7976 33.3029 30.4317 33.516 31.1034C33.7291 31.7751 33.8356 32.4727 33.8356 33.1964C33.8356 35.1568 33.1538 36.819 31.79 38.1827C30.4262 39.5465 28.7641 40.2284 26.8036 40.2284C24.8432 40.2284 23.1811 39.5465 21.8173 38.1827C20.4535 36.819 19.7716 35.1568 19.7716 33.1964C19.7716 31.236 20.4535 29.5738 21.8173 28.2101C23.1811 26.8463 24.8432 26.1644 26.8036 26.1644C27.5068 26.1644 28.1994 26.2654 28.8813 26.4674C29.5632 26.6694 30.1918 26.9839 30.7671 27.411L35.8494 22.3287H32.5571V19.7716H40.2284ZM23.6392 30.032C22.7655 30.9057 22.3287 31.9605 22.3287 33.1964C22.3287 34.4323 22.7655 35.4871 23.6392 36.3608C24.5129 37.2345 25.5677 37.6713 26.8036 37.6713C28.0396 37.6713 29.0944 37.2345 29.968 36.3608C30.8417 35.4871 31.2785 34.4323 31.2785 33.1964C31.2785 31.9605 30.8417 30.9057 29.968 30.032C29.0944 29.1583 28.0396 28.7215 26.8036 28.7215C25.5677 28.7215 24.5129 29.1583 23.6392 30.032Z" fill="white"/>
</svg>
