<svg width="60" height="60" viewBox="0 0 60 60" fill="none" xmlns="http://www.w3.org/2000/svg">
<path d="M30.0001 60C46.5687 60 60 46.5686 60 30C60 13.4314 46.5685 0 30.0001 0C13.4315 0 0 13.4314 0 30C0 46.5686 13.4315 60 30.0001 60Z" fill="#BB9960" fill-opacity="0.3"/>
<path d="M22.2001 39C23.491 39.9012 28.4701 40.6608 28.4452 38.9647L35.4001 34.5C42.2592 29.7423 46.677 21.5887 46.677 12.6224C46.677 11.5149 46.5865 10.4305 46.4535 9.35915C41.9396 5.76294 36.2279 3.6 30.0026 3.6C15.4208 3.6 3.6001 15.3938 3.6001 29.9424C3.6001 31.0496 3.77696 32.5216 3.90991 33.593C8.42379 37.1892 13.5541 38.6872 20.2747 38.9647C20.9128 38.9911 21.6588 39.0328 22.2001 39Z" fill="#3D9281"/>
<path d="M3.83618 33.1478C4.42616 37.8997 6.2921 42.2522 9.06645 45.8729C9.15996 45.9948 9.24725 46.1212 9.34275 46.2417C9.70282 46.6951 10.0871 47.1276 10.4758 47.5561C10.6372 47.7338 10.794 47.9145 10.9601 48.0877C11.3224 48.4659 11.7026 48.8265 12.0867 49.1827C12.3043 49.3847 12.5216 49.5863 12.746 49.7806C13.1115 50.0974 13.4891 50.4001 13.8718 50.6967C14.1409 50.905 14.4122 51.1088 14.6895 51.3069C15.0575 51.5699 15.433 51.8235 15.8151 52.0676C16.1318 52.2702 16.4537 52.4631 16.7793 52.6522C17.1481 52.8665 17.5204 53.0755 17.9005 53.2724C18.263 53.46 18.6333 53.6327 19.0056 53.8037C19.3732 53.9727 19.7404 54.1414 20.1167 54.2934C20.5254 54.4587 20.9434 54.603 21.3618 54.7481C21.7224 54.8733 22.0799 55.0034 22.4475 55.1132C22.9088 55.2508 23.3806 55.361 23.8521 55.4735C24.1958 55.5556 24.5349 55.6492 24.8835 55.7177C25.4238 55.8239 25.9757 55.8953 26.5275 55.968C26.8217 56.0068 27.1102 56.0628 27.4075 56.0919C28.2555 56.1748 29.1141 56.2211 29.9841 56.2218C29.9916 56.2218 29.9988 56.2228 30.0065 56.2228C44.5832 56.2228 56.4001 44.4297 56.4001 29.882L56.3998 29.8783C56.3998 29.0518 56.3509 28.2378 56.2761 27.4313C56.2644 27.3048 56.2564 27.1772 56.2427 27.0513C56.1614 26.2947 56.045 25.5494 55.9006 24.8135C55.8684 24.65 55.8348 24.4868 55.7999 24.3245C55.6455 23.6105 55.4672 22.9058 55.2562 22.2147C55.2069 22.0529 55.1503 21.8939 55.0979 21.7337C54.8959 21.1155 54.6745 20.5061 54.4286 19.9088C54.3541 19.7274 54.2785 19.547 54.2 19.3678C53.9571 18.8138 53.6928 18.2718 53.4135 17.7385C53.2988 17.5195 53.1873 17.2988 53.0666 17.0835C52.7681 16.5502 52.4492 16.0304 52.1153 15.5207C51.9495 15.2674 51.7787 15.0172 51.6044 14.7701C51.286 14.3184 50.9568 13.875 50.6115 13.445C50.389 13.168 50.1561 12.9 49.9227 12.6322C49.6818 12.356 49.4347 12.086 49.1829 11.8199C48.8206 11.4372 48.447 11.0659 48.0625 10.7053C47.8142 10.4724 47.5633 10.2424 47.306 10.0192C47.0252 9.77531 46.7437 9.53193 46.4524 9.3C46.5853 10.3713 46.6756 11.4553 46.6756 12.5628C46.6756 21.5286 42.2569 29.7426 35.4001 34.5H39.3001C39.2721 37.3457 38.0695 39.58 35.8719 41.204C34.2446 42.4257 32.2138 43.1474 30.0023 43.1474C27.7907 43.1474 25.76 42.4254 24.1327 41.204C23.2504 40.5478 22.5016 39.7365 21.9091 38.8215C21.368 38.8546 20.8311 38.9036 20.2816 38.9036C14.0581 38.9036 8.34832 36.7408 3.83594 33.1448L3.83618 33.1478Z" fill="#338877"/>
<path d="M21.8625 39.007C27.7068 38.9184 33.3738 35.9447 35.4768 34.4688L39.6276 33.0299C40.753 33.5096 43.1032 34.4688 43.5016 34.4688C43.9997 34.4688 43.4463 37.236 43.5016 38.3982C43.5459 39.328 40.9374 43.3237 39.6276 45.2054L26.5113 44.5412C22.5266 42.7334 16.0183 39.0955 21.8625 39.007Z" fill="#338877"/>
<path d="M31.7111 19.3333C30.2966 19.3333 28.9401 19.8952 27.9399 20.8954C26.9397 21.8956 26.3778 23.2522 26.3778 24.6667C26.3778 26.0812 26.9397 27.4377 27.9399 28.4379C28.9401 29.4381 30.2966 30 31.7111 30C33.1256 30 34.4822 29.4381 35.4824 28.4379C36.4826 27.4377 37.0445 26.0812 37.0445 24.6667C37.0445 23.2522 36.4826 21.8956 35.4824 20.8954C34.4822 19.8952 33.1256 19.3333 31.7111 19.3333ZM31.7111 21.8667C32.0788 21.8667 32.4429 21.9391 32.7826 22.0798C33.1224 22.2205 33.431 22.4268 33.691 22.6868C33.951 22.9468 34.1573 23.2554 34.298 23.5952C34.4387 23.9349 34.5111 24.299 34.5111 24.6667C34.5111 25.0344 34.4387 25.3985 34.298 25.7382C34.1573 26.0779 33.951 26.3866 33.691 26.6466C33.431 26.9066 33.1224 27.1128 32.7826 27.2535C32.4429 27.3942 32.0788 27.4667 31.7111 27.4667C31.3434 27.4667 30.9793 27.3942 30.6396 27.2535C30.2999 27.1128 29.9912 26.9066 29.7312 26.6466C29.4712 26.3866 29.265 26.0779 29.1243 25.7382C28.9836 25.3985 28.9111 25.0344 28.9111 24.6667C28.9111 23.9241 29.2061 23.2119 29.7312 22.6868C30.2563 22.1617 30.9685 21.8667 31.7111 21.8667ZM17.0445 23.3333V27.3333H13.0445V30H17.0445V34H19.7111V30H23.7111V27.3333H19.7111V23.3333H17.0445ZM31.7111 31.3333C28.1511 31.3333 21.0445 33.1067 21.0445 36.6667V40.6667H42.3778V36.6667C42.3778 33.1067 35.2711 31.3333 31.7111 31.3333ZM31.7111 33.8667C35.6711 33.8667 39.8445 35.8133 39.8445 36.6667V38.1333H23.5778V36.6667C23.5778 35.8133 27.7111 33.8667 31.7111 33.8667Z" fill="white"/>
</svg>
