<svg width="41" height="41" viewBox="0 0 41 41" fill="none" xmlns="http://www.w3.org/2000/svg">
<path d="M35.8518 29.7304C34.5894 28.4585 31.5321 26.6023 30.0488 25.8543C28.1171 24.8813 27.9581 24.8018 26.4398 25.9298C25.427 26.6826 24.7537 27.3551 23.5685 27.1023C22.3832 26.8495 19.8076 25.4242 17.5524 23.1761C15.2971 20.9281 13.7892 18.2777 13.5356 17.0965C13.282 15.9152 13.9656 15.2498 14.7113 14.2347C15.7622 12.8038 15.6827 12.5653 14.7844 10.6336C14.0841 9.13121 12.1738 6.10251 10.8972 4.84651C9.53147 3.4975 9.53147 3.73598 8.65148 4.10165C7.93503 4.40302 7.24772 4.76943 6.59816 5.19628C5.32626 6.0413 4.62036 6.74323 4.1267 7.79811C3.63305 8.85299 3.41126 11.326 5.96062 15.9573C8.50998 20.5886 10.2986 22.9567 14.0006 26.6484C17.7026 30.3401 20.5493 32.3251 24.7108 34.659C29.8588 37.5422 31.8334 36.9802 32.8915 36.4873C33.9495 35.9945 34.6546 35.2949 35.5012 34.023C35.9292 33.3746 36.2964 32.688 36.5982 31.9721C36.9647 31.0953 37.2032 31.0953 35.8518 29.7304Z" stroke="white" stroke-width="3.39173" stroke-miterlimit="10"/>
</svg>
