<svg width="288" height="2627" viewBox="0 0 288 2627" fill="none" xmlns="http://www.w3.org/2000/svg">
<g opacity="0.5" clip-path="url(#clip0_279_4198)">
<g opacity="0.2">
<path d="M288 1707.95C285.951 1706.22 283.88 1704.51 281.781 1702.84C258.953 1684.78 233.502 1670.9 209.327 1655.02C192.449 1643.11 180.16 1630.61 171.21 1618.71C153.155 1594.72 146.673 1563.98 149.616 1533.58C155.744 1470.21 187.045 1438.33 187.045 1438.33C157.211 1513.99 190.173 1567.35 190.173 1567.35C210.688 1599.92 257.698 1626.24 257.698 1626.24C267.917 1632.09 278.051 1638.12 288 1644.47V1707.95Z" fill="#BB9960"/>
<path d="M248.345 1581.02C240.026 1579.04 212.433 1569.33 194.655 1551.1C177.025 1533 170.955 1512.76 168.856 1504.09C167.721 1497.39 166.388 1484.41 170.615 1469.06C174.863 1453.64 182.649 1443.37 187.032 1438.33C187.819 1447.41 191.705 1480.15 217.816 1505.92C234.226 1522.13 257.266 1528.31 266.69 1530.81C259.826 1545.63 254.897 1560.28 248.345 1581.02Z" fill="#BB9960"/>
<path d="M288 1522.28C270.328 1545.9 260.52 1576.29 255.067 1606.19C254.542 1606.15 254.074 1606.04 253.656 1605.86C250.103 1604.3 250.202 1597.69 251.578 1593.26C261.194 1562.4 271.704 1530.23 287.993 1502.99V1522.28H288Z" fill="#BB9960"/>
<path d="M186.846 2107.48C189.704 2095.82 191.286 2083.67 192.045 2071.68C193.385 2050.6 192.045 2026.99 178.074 2010.36C169.011 1999.56 156.559 1992.32 145.078 1984.78C133.221 1976.98 121.059 1969.71 108.769 1962.69C108.769 1962.69 61.7666 1936.37 41.2438 1903.8C41.2438 1903.8 8.27542 1850.44 38.1165 1774.78C38.1165 1774.78 6.81458 1806.66 0.687531 1870.03C-2.25545 1900.43 4.22617 1931.17 22.2811 1955.16C31.2377 1967.06 43.5273 1979.56 60.3979 1991.47C84.5729 2007.35 110.024 2021.23 132.852 2039.29C144.305 2048.36 155.112 2058.46 164.168 2070.16C173.139 2081.76 178.798 2095.27 186.846 2107.47" fill="#BB9960"/>
<path d="M99.416 1917.47C91.0977 1915.5 63.5046 1905.78 45.7262 1887.55C28.0968 1869.45 22.0265 1849.21 19.9274 1840.54C18.7927 1833.84 17.4595 1820.86 21.6861 1805.51C25.9339 1790.09 33.7203 1779.82 38.1029 1774.78C38.89 1783.86 42.7762 1816.6 68.8871 1842.37C85.2968 1858.58 108.337 1864.77 117.762 1867.26C110.897 1882.08 105.969 1896.73 99.416 1917.47Z" fill="#BB9960"/>
<path d="M288 2024.69C268.527 2064.12 253.188 2107.02 253.627 2151.94C253.734 2162.99 255.592 2174 258.974 2184.47C263.931 2199.8 272.108 2213.9 282.391 2225.95C284.199 2228.06 286.071 2230.11 288 2232.1V2240.17C280.029 2235.08 272.236 2229.65 264.797 2223.74C248.316 2210.62 233.395 2194.89 223.545 2175.64C194.484 2118.84 216.113 2059.04 241.891 2005.94C261.535 1965.47 300.68 1912.35 280.334 1864.66C259.712 1816.32 196.023 1808.22 158.424 1838.5C128.072 1862.95 113.322 1903.24 106.138 1942.65C105.614 1942.61 105.146 1942.5 104.727 1942.32C101.174 1940.76 101.274 1934.15 102.649 1929.72C118.13 1880.03 135.916 1826.95 176.465 1796.52C197.697 1780.59 224.361 1772.32 250.337 1775.08C263.527 1776.47 276.455 1780.8 288 1787.62V2024.69Z" fill="#BB9960"/>
</g>
</g>
<g opacity="0.5" clip-path="url(#clip1_279_4198)">
<g opacity="0.2">
<path d="M288 1118.51C285.951 1120.24 283.88 1121.95 281.781 1123.62C258.953 1141.68 233.502 1155.56 209.327 1171.44C192.449 1183.35 180.16 1195.86 171.21 1207.75C153.155 1231.74 146.673 1262.48 149.616 1292.88C155.744 1356.25 187.045 1388.13 187.045 1388.13C157.211 1312.47 190.173 1259.12 190.173 1259.12C210.688 1226.54 257.698 1200.23 257.698 1200.23C267.917 1194.38 278.051 1188.34 288 1181.99V1118.51Z" fill="#BB9960"/>
<path d="M248.345 1245.44C240.026 1247.42 212.433 1257.13 194.655 1275.37C177.025 1293.46 170.955 1313.7 168.856 1322.38C167.721 1329.07 166.388 1342.05 170.615 1357.4C174.863 1372.82 182.649 1383.09 187.032 1388.13C187.819 1379.05 191.705 1346.31 217.816 1320.54C234.226 1304.34 257.266 1298.15 266.69 1295.65C259.826 1280.83 254.897 1266.18 248.345 1245.44Z" fill="#BB9960"/>
<path d="M288 1304.18C270.328 1280.57 260.52 1250.17 255.067 1220.27C254.542 1220.31 254.074 1220.42 253.656 1220.6C250.103 1222.16 250.202 1228.77 251.578 1233.2C261.194 1264.06 271.704 1296.23 287.993 1323.47V1304.18H288Z" fill="#BB9960"/>
<path d="M186.846 718.986C189.704 730.637 191.286 742.795 192.045 754.779C193.385 775.858 192.045 799.469 178.074 816.1C169.011 826.896 156.559 834.139 145.078 841.682C133.221 849.479 121.059 856.753 108.769 863.774C108.769 863.774 61.7666 890.093 41.2438 922.664C41.2438 922.664 8.27542 976.022 38.1165 1051.68C38.1165 1051.68 6.81458 1019.8 0.687531 956.431C-2.25545 926.028 4.22617 895.293 22.2811 871.301C31.2377 859.405 43.5273 846.898 60.3979 834.994C84.5729 819.107 110.024 805.232 132.852 787.169C144.305 778.098 155.112 768.006 164.168 756.299C173.139 744.703 178.798 731.191 186.846 718.994" fill="#BB9960"/>
<path d="M99.416 908.987C91.0977 910.965 63.5046 920.678 45.7262 938.915C28.0968 957.009 22.0265 977.249 19.9274 985.924C18.7927 992.62 17.4595 1005.6 21.6861 1020.95C25.9339 1036.37 33.7203 1046.64 38.1029 1051.68C38.89 1042.6 42.7762 1009.86 68.8871 984.088C85.2968 967.885 108.337 961.695 117.762 959.202C110.897 944.376 105.969 929.733 99.416 908.987Z" fill="#BB9960"/>
<path d="M288 801.773C268.527 762.338 253.188 719.445 253.627 674.525C253.734 663.467 255.592 652.465 258.974 641.993C263.931 626.661 272.108 612.564 282.391 600.516C284.199 598.403 286.071 596.353 288 594.366V586.292C280.029 591.382 272.236 596.812 264.797 602.725C248.316 615.841 233.395 631.568 223.545 650.819C194.484 707.619 216.113 767.42 241.891 820.524C261.535 860.988 300.68 914.116 280.334 961.798C259.712 1010.15 196.023 1018.24 158.424 987.958C128.072 963.508 113.322 923.219 106.138 883.816C105.614 883.847 105.146 883.958 104.727 884.14C101.174 885.7 101.274 892.309 102.649 896.742C118.13 946.434 135.916 999.507 176.465 1029.94C197.697 1045.88 224.361 1054.14 250.337 1051.38C263.527 1049.99 276.455 1045.66 288 1038.85V801.773Z" fill="#BB9960"/>
</g>
</g>
<g opacity="0.5" clip-path="url(#clip2_279_4198)">
<g opacity="0.2">
<path d="M288 764.974C285.951 763.24 283.88 761.531 281.781 759.861C258.953 741.798 233.502 727.922 209.327 712.036C192.449 700.131 180.16 687.625 171.21 675.728C153.155 651.736 146.673 621.001 149.616 590.598C155.744 527.228 187.045 495.352 187.045 495.352C157.211 571.007 190.173 624.365 190.173 624.365C210.688 656.937 257.698 683.255 257.698 683.255C267.917 689.105 278.051 695.137 288 701.493V764.974Z" fill="#BB9960"/>
<path d="M248.345 638.043C240.026 636.064 212.433 626.352 194.655 608.115C177.025 590.02 170.955 569.781 168.856 561.105C167.721 554.409 166.388 541.428 170.615 526.08C174.863 510.661 182.649 500.386 187.032 495.352C187.819 504.431 191.705 537.169 217.816 562.942C234.226 579.144 257.266 585.334 266.69 587.828C259.826 602.653 254.897 617.297 248.345 638.043Z" fill="#BB9960"/>
<path d="M288 579.303C270.328 602.914 260.52 633.31 255.067 663.206C254.542 663.174 254.074 663.063 253.656 662.881C250.103 661.322 250.202 654.713 251.578 650.28C261.194 619.418 271.704 587.25 287.993 560.013V579.303H288Z" fill="#BB9960"/>
<path d="M186.846 1164.49C189.704 1152.84 191.286 1140.69 192.045 1128.7C193.385 1107.62 192.045 1084.01 178.074 1067.38C169.011 1056.58 156.559 1049.34 145.078 1041.8C133.221 1034 121.059 1026.73 108.769 1019.71C108.769 1019.71 61.7666 993.388 41.2438 960.816C41.2438 960.816 8.27542 907.458 38.1165 831.803C38.1165 831.803 6.81458 863.679 0.687531 927.049C-2.25545 957.452 4.22617 988.187 22.2811 1012.18C31.2377 1024.08 43.5273 1036.58 60.3979 1048.49C84.5729 1064.37 110.024 1078.25 132.852 1096.31C144.305 1105.38 155.112 1115.47 164.168 1127.18C173.139 1138.78 178.798 1152.29 186.846 1164.49" fill="#BB9960"/>
<path d="M99.416 974.494C91.0977 972.515 63.5046 962.803 45.7262 944.566C28.0968 926.471 22.0265 906.232 19.9274 897.556C18.7927 890.86 17.4595 877.879 21.6861 862.531C25.9339 847.112 33.7203 836.838 38.1029 831.803C38.89 840.882 42.7762 873.62 68.8871 899.393C85.2968 915.596 108.337 921.785 117.762 924.279C110.897 939.104 105.969 953.748 99.416 974.494Z" fill="#BB9960"/>
<path d="M288 1081.71C268.527 1121.14 253.188 1164.04 253.627 1208.96C253.734 1220.01 255.592 1231.02 258.974 1241.49C263.931 1256.82 272.108 1270.92 282.391 1282.96C284.199 1285.08 286.071 1287.13 288 1289.11V1297.19C280.029 1292.1 272.236 1286.67 264.797 1280.76C248.316 1267.64 233.395 1251.91 223.545 1232.66C194.484 1175.86 216.113 1116.06 241.891 1062.96C261.535 1022.49 300.68 969.365 280.334 921.683C259.712 873.335 196.023 865.238 158.424 895.522C128.072 919.973 113.322 960.262 106.138 999.665C105.614 999.633 105.146 999.522 104.727 999.34C101.174 997.781 101.274 991.172 102.649 986.739C118.13 937.046 135.916 883.974 176.465 853.539C197.697 837.605 224.361 829.342 250.337 832.104C263.527 833.489 276.455 837.819 288 844.634V1081.71Z" fill="#BB9960"/>
</g>
</g>
<g opacity="0.5" clip-path="url(#clip3_279_4198)">
<g opacity="0.2">
<path d="M288 175.526C285.951 177.26 283.88 178.969 281.781 180.639C258.953 198.702 233.502 212.578 209.327 228.464C192.449 240.369 180.16 252.875 171.21 264.772C153.155 288.764 146.673 319.499 149.616 349.902C155.744 413.272 187.045 445.148 187.045 445.148C157.211 369.493 190.173 316.135 190.173 316.135C210.688 283.563 257.698 257.245 257.698 257.245C267.917 251.395 278.051 245.363 288 239.007V175.526Z" fill="#BB9960"/>
<path d="M248.345 302.457C240.026 304.436 212.433 314.148 194.655 332.385C177.025 350.48 170.955 370.719 168.856 379.395C167.721 386.091 166.388 399.072 170.615 414.42C174.863 429.839 182.649 440.114 187.032 445.148C187.819 436.069 191.705 403.331 217.816 377.558C234.226 361.356 257.266 355.166 266.69 352.672C259.826 337.847 254.897 323.203 248.345 302.457Z" fill="#BB9960"/>
<path d="M288 361.197C270.328 337.586 260.52 307.19 255.067 277.294C254.542 277.326 254.074 277.437 253.656 277.619C250.103 279.178 250.202 285.787 251.578 290.22C261.194 321.082 271.704 353.25 287.993 380.487V361.197H288Z" fill="#BB9960"/>
<path d="M186.846 -223.995C189.704 -212.343 191.286 -200.185 192.045 -188.201C193.385 -167.123 192.045 -143.511 178.074 -126.881C169.011 -116.084 156.559 -108.842 145.078 -101.299C133.221 -93.5019 121.059 -86.2277 108.769 -79.2068C108.769 -79.2068 61.7666 -52.8881 41.2438 -20.3163C41.2438 -20.3163 8.27542 33.0413 38.1165 108.696C38.1165 108.696 6.81458 76.8212 0.687531 13.4507C-2.25545 -16.9523 4.22617 -47.6877 22.2811 -71.6792C31.2377 -83.576 43.5273 -96.0823 60.3979 -107.987C84.5729 -123.873 110.024 -137.749 132.852 -155.812C144.305 -164.883 155.112 -174.975 164.168 -186.682C173.139 -198.278 178.798 -211.789 186.846 -223.987" fill="#BB9960"/>
<path d="M99.416 -33.9941C91.0977 -32.0153 63.5046 -22.3031 45.7262 -4.06609C28.0968 14.0285 22.0265 34.2681 19.9274 42.9434C18.7927 49.6398 17.4595 62.621 21.6861 77.9689C25.9339 93.3881 33.7203 103.662 38.1029 108.696C38.89 99.6175 42.7762 66.8795 68.8871 41.107C85.2968 24.9042 108.337 18.7144 117.762 16.221C110.897 1.39553 105.969 -13.2479 99.416 -33.9941Z" fill="#BB9960"/>
<path d="M288 -141.208C268.527 -180.642 253.188 -223.536 253.627 -268.455C253.734 -279.513 255.592 -290.516 258.974 -300.988C263.931 -316.32 272.108 -330.417 282.391 -342.464C284.199 -344.578 286.071 -346.628 288 -348.615V-356.688C280.029 -351.599 272.236 -346.169 264.797 -340.256C248.316 -327.14 233.395 -311.412 223.545 -292.162C194.484 -235.361 216.113 -175.561 241.891 -122.456C261.535 -81.9929 300.68 -28.8649 280.334 18.8174C259.712 67.1645 196.023 75.262 158.424 44.9777C128.072 20.5271 113.322 -19.7622 106.138 -59.1649C105.614 -59.1333 105.146 -59.0224 104.727 -58.8404C101.174 -57.2811 101.274 -50.6717 102.649 -46.2391C118.13 3.45364 135.916 56.5262 176.465 86.9609C197.697 102.895 224.361 111.158 250.337 108.396C263.527 107.011 276.455 102.681 288 95.8657V-141.208Z" fill="#BB9960"/>
</g>
</g>
<g opacity="0.5" clip-path="url(#clip4_279_4198)">
<g opacity="0.2">
<path d="M288 2648.45C285.951 2646.72 283.88 2645.01 281.781 2643.34C258.953 2625.28 233.502 2611.4 209.327 2595.52C192.449 2583.61 180.16 2571.11 171.21 2559.21C153.155 2535.22 146.673 2504.48 149.616 2474.08C155.744 2410.71 187.045 2378.83 187.045 2378.83C157.211 2454.49 190.173 2507.85 190.173 2507.85C210.688 2540.42 257.698 2566.74 257.698 2566.74C267.917 2572.59 278.051 2578.62 288 2584.97V2648.45Z" fill="#BB9960"/>
<path d="M248.345 2521.52C240.026 2519.54 212.433 2509.83 194.655 2491.6C177.025 2473.5 170.955 2453.26 168.856 2444.59C167.721 2437.89 166.388 2424.91 170.615 2409.56C174.863 2394.14 182.649 2383.87 187.032 2378.83C187.819 2387.91 191.705 2420.65 217.816 2446.42C234.226 2462.62 257.266 2468.81 266.69 2471.31C259.826 2486.13 254.897 2500.78 248.345 2521.52Z" fill="#BB9960"/>
<path d="M288 2462.78C270.328 2486.4 260.52 2516.79 255.067 2546.69C254.542 2546.65 254.074 2546.54 253.656 2546.36C250.103 2544.8 250.202 2538.19 251.578 2533.76C261.194 2502.9 271.704 2470.73 287.993 2443.49V2462.78H288Z" fill="#BB9960"/>
</g>
</g>
<g opacity="0.5" clip-path="url(#clip5_279_4198)">
<g opacity="0.2">
<path d="M288 2059.01C285.951 2060.74 283.88 2062.45 281.781 2064.12C258.953 2082.18 233.502 2096.06 209.327 2111.94C192.449 2123.85 180.16 2136.36 171.21 2148.25C153.155 2172.24 146.673 2202.98 149.616 2233.38C155.744 2296.75 187.045 2328.63 187.045 2328.63C157.211 2252.97 190.173 2199.62 190.173 2199.62C210.688 2167.04 257.698 2140.73 257.698 2140.73C267.917 2134.88 278.051 2128.84 288 2122.49V2059.01Z" fill="#BB9960"/>
<path d="M248.345 2185.94C240.026 2187.92 212.433 2197.63 194.655 2215.87C177.025 2233.96 170.955 2254.2 168.856 2262.88C167.721 2269.57 166.388 2282.55 170.615 2297.9C174.863 2313.32 182.649 2323.59 187.032 2328.63C187.819 2319.55 191.705 2286.81 217.816 2261.04C234.226 2244.84 257.266 2238.65 266.69 2236.15C259.826 2221.33 254.897 2206.68 248.345 2185.94Z" fill="#BB9960"/>
<path d="M288 2244.68C270.328 2221.07 260.52 2190.67 255.067 2160.77C254.542 2160.81 254.074 2160.92 253.656 2161.1C250.103 2162.66 250.202 2169.27 251.578 2173.7C261.194 2204.56 271.704 2236.73 287.993 2263.97V2244.68H288Z" fill="#BB9960"/>
<path d="M186.846 1659.49C189.704 1671.14 191.286 1683.3 192.045 1695.28C193.385 1716.36 192.045 1739.97 178.074 1756.6C169.011 1767.4 156.559 1774.64 145.078 1782.18C133.221 1789.98 121.059 1797.25 108.769 1804.27C108.769 1804.27 61.7666 1830.59 41.2438 1863.16C41.2438 1863.16 8.27542 1916.52 38.1165 1992.18C38.1165 1992.18 6.81458 1960.3 0.687531 1896.93C-2.25545 1866.53 4.22617 1835.79 22.2811 1811.8C31.2377 1799.9 43.5273 1787.4 60.3979 1775.49C84.5729 1759.61 110.024 1745.73 132.852 1727.67C144.305 1718.6 155.112 1708.51 164.168 1696.8C173.139 1685.2 178.798 1671.69 186.846 1659.49" fill="#BB9960"/>
<path d="M99.416 1849.49C91.0977 1851.47 63.5046 1861.18 45.7262 1879.41C28.0968 1897.51 22.0265 1917.75 19.9274 1926.42C18.7927 1933.12 17.4595 1946.1 21.6861 1961.45C25.9339 1976.87 33.7203 1987.14 38.1029 1992.18C38.89 1983.1 42.7762 1950.36 68.8871 1924.59C85.2968 1908.38 108.337 1902.2 117.762 1899.7C110.897 1884.88 105.969 1870.23 99.416 1849.49Z" fill="#BB9960"/>
<path d="M288 1742.27C268.527 1702.84 253.188 1659.95 253.627 1615.03C253.734 1603.97 255.592 1592.97 258.974 1582.49C263.931 1567.16 272.108 1553.06 282.391 1541.02C284.199 1538.9 286.071 1536.85 288 1534.87V1526.79C280.029 1531.88 272.236 1537.31 264.797 1543.22C248.316 1556.34 233.395 1572.07 223.545 1591.32C194.484 1648.12 216.113 1707.92 241.891 1761.02C261.535 1801.49 300.68 1854.62 280.334 1902.3C259.712 1950.65 196.023 1958.74 158.424 1928.46C128.072 1904.01 113.322 1863.72 106.138 1824.32C105.614 1824.35 105.146 1824.46 104.727 1824.64C101.174 1826.2 101.274 1832.81 102.649 1837.24C118.13 1886.93 135.916 1940.01 176.465 1970.44C197.697 1986.38 224.361 1994.64 250.337 1991.88C263.527 1990.49 276.455 1986.16 288 1979.35V1742.27Z" fill="#BB9960"/>
</g>
</g>
<defs>
<clipPath id="clip0_279_4198">
<rect width="288" height="459.738" fill="white" transform="matrix(-1 0 0 -1 288 1883.48)"/>
</clipPath>
<clipPath id="clip1_279_4198">
<rect width="288" height="459.738" fill="white" transform="matrix(-1 0 0 1 288 942.981)"/>
</clipPath>
<clipPath id="clip2_279_4198">
<rect width="288" height="459.738" fill="white" transform="matrix(-1 0 0 -1 288 940.5)"/>
</clipPath>
<clipPath id="clip3_279_4198">
<rect width="288" height="459.738" fill="white" transform="matrix(-1 0 0 1 288 0)"/>
</clipPath>
<clipPath id="clip4_279_4198">
<rect width="288" height="459.738" fill="white" transform="matrix(-1 0 0 -1 288 2823.98)"/>
</clipPath>
<clipPath id="clip5_279_4198">
<rect width="288" height="459.738" fill="white" transform="matrix(-1 0 0 1 288 1883.48)"/>
</clipPath>
</defs>
</svg>
