<svg width="44" height="44" viewBox="0 0 44 44" fill="none" xmlns="http://www.w3.org/2000/svg">
<circle cx="21.9772" cy="21.9772" r="21.9772" fill="#015645"/>
<path d="M27.8086 18.4913H27.8179M27.8179 16.1522V13.2295M16.7271 33.6498H13.4776C13.1006 33.6498 12.7212 33.5962 12.3745 33.4479C11.247 32.9635 10.6739 32.3227 10.4078 31.9224C10.3356 31.8115 10.3001 31.6807 10.3064 31.5485C10.3127 31.4163 10.3604 31.2894 10.4428 31.1859C11.7501 29.4491 14.7802 28.4009 16.7271 28.4009M16.7329 33.6498H19.9813C20.3594 33.6498 20.7376 33.5962 21.0843 33.4479C22.213 32.9635 22.7849 32.3227 23.0522 31.9224C23.1244 31.8115 23.1599 31.6807 23.1536 31.5485C23.1473 31.4163 23.0996 31.2894 23.0172 31.1859C21.7099 29.4491 18.6798 28.4009 16.7329 28.4009M33.6493 15.8989C33.6493 18.9874 31.0347 21.4922 27.8086 21.4922C27.4288 21.4922 27.0522 21.4572 26.6787 21.3871C26.4102 21.337 26.2772 21.3124 26.1826 21.3265C26.0893 21.3405 25.9562 21.4105 25.6924 21.5529C24.9368 21.9557 24.0672 22.091 23.2249 21.9369C23.5447 21.5424 23.7618 21.0697 23.8587 20.5631C23.9171 20.2538 23.7723 19.9526 23.5552 19.732C22.5415 18.7135 21.971 17.3359 21.9678 15.8989C21.9678 12.8105 24.5824 10.3057 27.8086 10.3057C31.0347 10.3057 33.6493 12.8105 33.6493 15.8989ZM19.9754 22.3151C19.9742 23.174 19.6319 23.9973 19.0239 24.604C18.4159 25.2107 17.5919 25.5512 16.7329 25.5506C16.3074 25.5512 15.8859 25.468 15.4926 25.3057C15.0992 25.1435 14.7417 24.9053 14.4404 24.6049C14.1391 24.3044 13.8999 23.9476 13.7365 23.5547C13.5731 23.1618 13.4887 22.7406 13.4881 22.3151C13.4885 21.8895 13.5728 21.4681 13.7362 21.0751C13.8995 20.6821 14.1387 20.3251 14.44 20.0245C14.7413 19.724 15.0989 19.4857 15.4923 19.3234C15.8857 19.161 16.3073 19.0778 16.7329 19.0784C17.5921 19.0778 18.4163 19.4184 19.0243 20.0254C19.6324 20.6323 19.9745 21.4559 19.9754 22.3151Z" stroke="white" stroke-width="1.83143" stroke-linecap="round" stroke-linejoin="round"/>
</svg>
