<svg width="26" height="26" viewBox="0 0 26 26" fill="none" xmlns="http://www.w3.org/2000/svg">
<path d="M18.4189 9.10141H18.4282M18.4282 6.76232V3.83963M7.33742 24.26H4.08791C3.7109 24.26 3.33156 24.2063 2.9849 24.058C1.85738 23.5736 1.28428 22.9328 1.01815 22.5325C0.945927 22.4216 0.910442 22.2908 0.916727 22.1586C0.923012 22.0264 0.970748 21.8995 1.05317 21.796C2.36044 20.0592 5.39052 19.011 7.33742 19.011M7.34326 24.26H10.5916C10.9698 24.26 11.348 24.2063 11.6946 24.058C12.8233 23.5736 13.3952 22.9328 13.6625 22.5325C13.7348 22.4216 13.7702 22.2908 13.764 22.1586C13.7577 22.0264 13.7099 21.8995 13.6275 21.796C12.3202 20.0592 9.29016 19.011 7.34326 19.011M24.2596 6.50904C24.2596 9.59747 21.6451 12.1023 18.4189 12.1023C18.0392 12.1023 17.6626 12.0673 17.289 11.9973C17.0206 11.9471 16.8875 11.9226 16.793 11.9366C16.6996 11.9506 16.5665 12.0206 16.3028 12.163C15.5472 12.5658 14.6775 12.7012 13.8353 12.547C14.1551 12.1525 14.3722 11.6798 14.4691 11.1732C14.5274 10.8639 14.3827 10.5628 14.1656 10.3422C13.1519 9.32364 12.5814 7.94604 12.5782 6.50904C12.5782 3.4206 15.1927 0.915771 18.4189 0.915771C21.6451 0.915771 24.2596 3.4206 24.2596 6.50904ZM10.5858 12.9252C10.5845 13.7841 10.2423 14.6074 9.63427 15.2141C9.02625 15.8209 8.2022 16.1613 7.34326 16.1607C6.91775 16.1613 6.49629 16.0781 6.10294 15.9158C5.70959 15.7536 5.35205 15.5154 5.05074 15.215C4.74943 14.9145 4.51025 14.5577 4.34685 14.1648C4.18345 13.7719 4.09903 13.3507 4.09842 12.9252C4.09888 12.4996 4.18318 12.0782 4.34651 11.6852C4.50984 11.2922 4.749 10.9352 5.05033 10.6347C5.35166 10.3341 5.70925 10.0958 6.10267 9.93348C6.4961 9.77114 6.91766 9.6879 7.34326 9.68852C8.2024 9.6879 9.02663 10.0285 9.63468 10.6355C10.2427 11.2424 10.5848 12.066 10.5858 12.9252Z" stroke="white" stroke-width="1.83143" stroke-linecap="round" stroke-linejoin="round"/>
</svg>
